<svg xmlns="http://www.w3.org/2000/svg" viewBox="0 0 128 128">
  <defs>
    <linearGradient id="grad1" x1="0%" y1="0%" x2="100%" y2="100%">
      <stop offset="0%" style="stop-color:#667eea;stop-opacity:1" />
      <stop offset="100%" style="stop-color:#764ba2;stop-opacity:1" />
    </linearGradient>
  </defs>
  
  <!-- 背景圆 -->
  <circle cx="64" cy="64" r="60" fill="url(#grad1)"/>
  
  <!-- 机器人头部 -->
  <rect x="38" y="30" width="52" height="45" rx="10" fill="white"/>
  
  <!-- 眼睛 -->
  <circle cx="50" cy="50" r="6" fill="#667eea"/>
  <circle cx="78" cy="50" r="6" fill="#667eea"/>
  
  <!-- 嘴巴 -->
  <rect x="48" y="62" width="32" height="4" rx="2" fill="#667eea"/>
  
  <!-- 天线 -->
  <line x1="64" y1="30" x2="64" y2="18" stroke="white" stroke-width="4" stroke-linecap="round"/>
  <circle cx="64" cy="14" r="5" fill="white"/>
  
  <!-- 语音波纹 -->
  <path d="M95 48 Q105 54 95 60" fill="none" stroke="white" stroke-width="3" stroke-linecap="round" opacity="0.8"/>
  <path d="M100 42 Q115 54 100 66" fill="none" stroke="white" stroke-width="3" stroke-linecap="round" opacity="0.6"/>
  
  <!-- 页面图标 -->
  <rect x="30" y="82" width="28" height="35" rx="3" fill="white" opacity="0.9"/>
  <line x1="35" y1="90" x2="53" y2="90" stroke="#667eea" stroke-width="2"/>
  <line x1="35" y1="96" x2="53" y2="96" stroke="#667eea" stroke-width="2"/>
  <line x1="35" y1="102" x2="48" y2="102" stroke="#667eea" stroke-width="2"/>
  
  <!-- 放大镜 -->
  <circle cx="82" cy="95" r="12" fill="none" stroke="white" stroke-width="4"/>
  <line x1="91" y1="104" x2="100" y2="113" stroke="white" stroke-width="4" stroke-linecap="round"/>
</svg>
